<svg xmlns="http://www.w3.org/2000/svg" viewBox="0 0 1160 1191" width="30.0mm" height="30.8mm"><title>Vybes mark — 3D solid</title><desc>Single-outline mark for extrusion. At 30 mm wide the thinnest feature is 4.13 mm.</desc><path d="M774.9 1002.4L772.4 1027.8L764.6 1058.7L751.9 1088.0L738.5 1109.6L722.3 1129.4L698.7 1150.8L671.9 1168.0L642.7 1180.7L611.7 1188.4L580.0 1191.1L554.5 1189.4L523.4 1182.7L493.7 1170.9L466.4 1154.6L446.7 1138.4L425.3 1114.8L408.0 1088.0L395.3 1058.7L387.6 1027.8L385.0 996.1L387.6 964.3L395.3 933.4L408.0 904.1L423.9 879.1L404.8 830.8L379.1 756.8L303.8 517.7L273.4 427.5L243.7 350.1L220.7 299.2L193.5 249.8L168.7 215.2L146.8 192.9L127.0 178.7L115.4 172.7L99.2 166.4L61.2 157.8L46.4 152.6L37.2 147.6L24.9 138.0L11.7 121.7L4.9 107.6L1.0 92.4L0.0 76.8L2.2 61.2L7.3 46.4L15.3 32.9L22.0 24.9L33.8 14.6L47.5 6.9L62.4 1.9L72.7 0.3L88.4 0.4L115.2 5.3L141.0 11.9L166.1 20.5L189.5 30.8L226.3 52.4L260.0 79.5L292.1 113.4L321.1 152.5L342.9 188.1L364.6 229.3L384.8 273.3L411.2 338.7L449.8 449.2L530.9 706.5L565.1 801.6L594.9 801.6L629.0 706.5L716.7 429.5L755.3 321.6L781.8 258.1L802.9 214.2L830.5 165.5L853.9 131.1L885.5 93.7L902.0 77.6L925.1 58.6L942.2 46.7L961.9 35.2L985.3 24.0L1004.4 16.6L1027.1 9.6L1052.5 3.7L1071.6 0.4L1087.2 0.3L1107.6 4.9L1121.7 11.7L1134.2 21.2L1144.7 32.9L1150.3 41.8L1156.4 56.2L1159.5 71.6L1159.9 82.0L1158.0 97.6L1155.0 107.6L1145.3 126.1L1131.2 141.4L1113.5 152.6L1098.7 157.8L1060.8 166.4L1036.8 176.6L1017.3 189.5L995.9 209.9L971.7 241.7L950.4 277.5L922.1 336.5L898.6 394.9L862.2 498.9L774.6 775.6L754.8 831.8L736.0 879.1L745.6 893.1L754.9 909.8L766.6 939.4L773.3 970.6L774.9 1002.4Z" fill="#000000" fill-rule="evenodd"/></svg>