<svg xmlns="http://www.w3.org/2000/svg" viewBox="0 0 1240 1205"><title>Vybes mark white</title><path d="M793.9 996.7L792.5 1013.8L789.4 1030.6L784.7 1047.0L778.5 1062.9L770.7 1078.1L761.4 1092.4L750.8 1105.8L738.9 1118.0L725.9 1129.1L711.9 1138.8L696.9 1147.1L681.3 1153.9L665.0 1159.1L648.3 1162.7L631.4 1164.7L614.3 1165.0L597.3 1163.6L580.5 1160.5L564.0 1155.8L548.2 1149.5L533.0 1141.7L518.6 1132.5L505.2 1121.9L493.0 1110.0L481.9 1097.0L472.2 1082.9L463.9 1068.0L457.1 1052.3L451.9 1036.1L448.3 1019.4L446.3 1002.4L446.1 985.4L447.5 968.3L450.5 951.5L455.2 935.1L461.5 919.2L469.3 904.1L478.5 889.7L489.2 876.3L501.0 864.1L514.0 853.0L528.1 843.3L543.0 835.0L558.7 828.2L574.9 823.0L591.6 819.4L608.6 817.4L625.7 817.1L642.7 818.5L659.5 821.6L675.9 826.3L691.8 832.6L707.0 840.4L721.3 849.6L734.7 860.2L747.0 872.1L758.0 885.1L767.7 899.2L776.0 914.1L782.8 929.8L788.0 946.0L791.6 962.7L793.6 979.7L793.9 996.7ZM149.0 44.0L179.1 51.3L203.9 59.7L229.5 70.8L249.1 81.4L272.6 96.9L291.7 112.1L314.5 133.7L330.5 151.5L362.2 194.2L382.9 228.1L397.7 255.6L431.1 328.0L463.9 413.4L496.2 508.8L565.2 728.7L525.6 740.2L501.4 750.7L486.0 759.0L471.1 768.2L450.0 783.9L423.2 809.2L343.8 557.7L313.4 467.5L295.4 419.4L277.8 376.5L260.7 339.2L244.1 307.6L228.3 281.7L213.4 261.1L199.6 245.0L182.7 229.5L167.0 218.7L147.4 209.4L126.0 202.7L96.2 196.4L77.2 187.6L64.9 178.0L57.8 170.3L51.7 161.7L44.9 147.6L41.9 137.6L40.0 122.0L42.2 101.2L49.7 81.8L62.0 64.9L78.2 51.7L92.3 44.9L102.4 41.9L123.2 40.0L149.0 44.0ZM674.8 728.7L756.5 469.9L782.3 396.1L801.9 345.0L828.6 283.4L849.2 242.3L871.5 203.9L893.9 171.1L923.7 135.6L956.6 105.1L990.8 81.4L1027.6 63.0L1068.9 49.1L1098.7 42.5L1116.8 40.0L1132.4 41.0L1147.6 44.9L1161.7 51.7L1170.3 57.8L1178.0 64.9L1187.6 77.2L1194.6 91.3L1197.8 101.2L1199.5 111.6L1199.6 127.2L1198.0 137.6L1193.1 152.5L1185.3 166.1L1178.8 174.2L1171.2 181.4L1158.2 190.3L1143.7 196.4L1113.9 202.7L1092.5 209.4L1072.9 218.7L1057.3 229.5L1040.4 245.0L1026.5 261.1L1011.7 281.7L995.9 307.6L979.3 339.2L962.1 376.5L944.5 419.4L926.6 467.5L896.1 557.7L816.8 809.2L790.0 783.9L768.9 768.2L754.0 759.0L730.6 746.9L714.4 740.2L674.8 728.7Z" fill="#FFFFFF" fill-rule="evenodd"/></svg>